<svg width="100" height="102" xmlns="http://www.w3.org/2000/svg">
  <defs>
    <linearGradient x1="5.718%" y1="72.266%" x2="93.718%" y2="26.201%" id="a">
      <stop stop-color="#FFF" offset="0%"/>
      <stop stop-color="#EBEFF8" offset="100%"/>
    </linearGradient>
    <linearGradient x1="7.586%" y1="59.743%" x2="88.741%" y2="28.147%" id="b">
      <stop stop-color="#B6C3D6" offset="0%"/>
      <stop stop-color="#EBEFF8" offset="53%"/>
      <stop stop-color="#F3F5F8" offset="100%"/>
    </linearGradient>
    <linearGradient x1="0%" y1="49.996%" x2="100%" y2="49.996%" id="c">
      <stop stop-color="#F3F5F8" offset="0%"/>
      <stop stop-color="#EBEFF8" offset="47%"/>
      <stop stop-color="#B6C3D6" offset="100%"/>
    </linearGradient>
    <linearGradient x1="-20.816%" y1="50%" x2="79.133%" y2="50%" id="d">
      <stop stop-color="#EBEFF8" offset="0%"/>
      <stop stop-color="#FFF" offset="100%"/>
    </linearGradient>
    <linearGradient x1="50.007%" y1="0%" x2="50.007%" y2="100%" id="e">
      <stop stop-color="#F3F5F8" offset="0%"/>
      <stop stop-color="#EBEFF8" offset="47%"/>
      <stop stop-color="#B6C3D6" offset="100%"/>
    </linearGradient>
    <linearGradient x1="50%" y1="100%" x2="50%" y2="0%" id="f">
      <stop stop-color="#E89D7B" offset="0%"/>
      <stop stop-color="#EA643A" offset="100%"/>
    </linearGradient>
  </defs>
  <g fill="none" fill-rule="evenodd">
    <g transform="translate(0 2)" fill-rule="nonzero" opacity=".1">
      <ellipse fill="url(#a)" cx="50" cy="49.5" rx="49.99" ry="49.49"/>
      <path d="M73.68 93.085c15-7.975 24.862-22.967 26.165-39.773-11.416 20.331-35.592 30.05-58.094 23.354-22.502-6.696-37.26-28-35.461-51.193-10.76 19.208-7.448 43.14 8.136 58.774 15.583 15.635 39.71 19.233 59.254 8.838z" fill="url(#b)"/>
    </g>
    <g fill="#99ADD0" fill-rule="nonzero">
      <g transform="rotate(80 12.02 18.254)">
        <ellipse cx="12.066" cy="12.088" rx="3.064" ry="3.049"/>
        <path d="M.407 13.641a11.627 11.627 0 010-3.098A3.216 3.216 0 003.478 8.63a3.188 3.188 0 00-.764-3.633A11.736 11.736 0 014.93 2.798l.09.093a3.223 3.223 0 004.547 0c.636-.63.976-1.5.937-2.392a12.153 12.153 0 013.117 0 3.175 3.175 0 00.937 2.392 3.223 3.223 0 004.548 0l.09-.093A11.423 11.423 0 0121.4 4.992a3.188 3.188 0 00-.768 3.638 3.216 3.216 0 003.079 1.913c.134 1.03.134 2.073 0 3.102a3.216 3.216 0 00-3.075 1.913 3.188 3.188 0 00.67 3.546l.094.089a11.736 11.736 0 01-2.204 2.194 3.227 3.227 0 00-3.65-.76 3.198 3.198 0 00-1.925 3.055 11.796 11.796 0 01-3.117 0 3.198 3.198 0 00-1.922-3.06 3.227 3.227 0 00-3.563.667l-.09.093a12.07 12.07 0 01-2.204-2.193l.094-.09a3.188 3.188 0 00.669-3.55 3.216 3.216 0 00-3.082-1.908zm7.335 2.733a6.109 6.109 0 008.608-.003 6.038 6.038 0 000-8.566 6.109 6.109 0 00-8.608-.003 6.04 6.04 0 00-1.787 4.286 6.04 6.04 0 001.787 4.286z"/>
      </g>
      <g transform="rotate(60 12.478 40.506)">
        <ellipse cx="9.202" cy="9.22" rx="2.337" ry="2.326"/>
        <path d="M.31 10.404a8.868 8.868 0 010-2.363 2.453 2.453 0 002.343-1.46 2.432 2.432 0 00-.583-2.77 8.951 8.951 0 011.69-1.677l.069.071a2.458 2.458 0 003.468 0A2.422 2.422 0 008.012.38a9.269 9.269 0 012.378 0c-.03.682.23 1.344.715 1.825a2.458 2.458 0 003.468 0l.069-.07a8.712 8.712 0 011.68 1.672 2.432 2.432 0 00-.586 2.775 2.453 2.453 0 002.35 1.46c.102.785.102 1.58 0 2.365a2.453 2.453 0 00-2.346 1.46 2.432 2.432 0 00.511 2.703l.072.069a8.951 8.951 0 01-1.681 1.673 2.461 2.461 0 00-2.784-.58 2.44 2.44 0 00-1.468 2.33 8.997 8.997 0 01-2.378 0 2.44 2.44 0 00-1.465-2.333 2.461 2.461 0 00-2.718.509l-.068.07a9.205 9.205 0 01-1.682-1.673l.072-.068a2.432 2.432 0 00.51-2.707 2.453 2.453 0 00-2.35-1.456zm5.595 2.085a4.66 4.66 0 006.565-.002 4.605 4.605 0 000-6.534 4.66 4.66 0 00-6.565-.002A4.606 4.606 0 004.542 9.22c0 1.226.49 2.403 1.363 3.269z"/>
      </g>
    </g>
    <g transform="translate(0 24)">
      <rect fill="#F3F5F8" fill-rule="nonzero" transform="rotate(180 39.295 29.042)" x=".075" y=".433" width="78.44" height="57.218" rx="2"/>
      <path d="M.875 46.017h-.8v10.71c0 .516.425.934.95.934h76.54c.525 0 .95-.418.95-.934V1.967C62.503 29.233 32.903 46.027.875 46.016z" fill="url(#c)" fill-rule="nonzero"/>
      <path fill="#FFFEFE" fill-rule="nonzero" d="M70.8 52.131h-8.245V11.148H70.8z"/>
      <path fill="#DBE5F1" fill-rule="nonzero" d="M57.11 52.131h-8.245V11.148h8.245z"/>
      <path d="M.075 23.79C18.28 21.098 35.194 12.94 48.5.433H1.025a.942.942 0 00-.95.929V23.79z" fill="url(#d)" fill-rule="nonzero"/>
      <path fill="#DBE5F1" fill-rule="nonzero" d="M43.32 52.131h-8.245V11.148h8.245zM29.675 52.131H21.43V11.148h8.245zM16.03 52.131H7.785V11.148h8.245z"/>
      <path fill="#FFFEFE" fill-rule="nonzero" d="M43.415 52.131H35.17v-31.89h8.245zM29.72 52.131h-8.245v-24.88h8.245zM57.11 52.131h-8.245V23.613h8.245zM16.03 52.132H7.785V32.574h8.245z"/>
      <path fill="#FFFEFE" fill-rule="nonzero" d="M70.805 52.132H7.79v-1.003h63.015z"/>
      <rect fill="#F3F5F8" fill-rule="nonzero" x="26.39" y="4.807" width="25.81" height="2.099" rx="1.049"/>
      <path d="M10.275 36.722l9.835-8.656a6.763 6.763 0 015.655-1.647l5.5.954a6.722 6.722 0 005.145-1.234l6.265-4.586a6.704 6.704 0 015.465-1.17l4.685 1.052A6.787 6.787 0 0059 19.661l9.32-8.818M10.275 47.54l10.28-8.05a6.081 6.081 0 017.455 0l2.945 2.275c2.403 1.868 5.852 1.656 8-.492l4.86-4.836a6.072 6.072 0 016.115-1.475l6.86 2.168c1.55.49 3.235.342 4.67-.413l6.87-3.613" stroke="#1CD6BA" stroke-width="2.23" stroke-linecap="round"/>
      <ellipse fill="#53729F" fill-rule="nonzero" cx="52.985" cy="20.924" rx="1.765" ry="1.735"/>
      <ellipse stroke="#53729F" stroke-width="1.65" stroke-linecap="round" stroke-linejoin="round" cx="52.985" cy="20.924" rx="5.245" ry="5.156"/>
      <ellipse fill="#53729F" fill-rule="nonzero" cx="25.415" cy="38.339" rx="1.765" ry="1.735"/>
      <ellipse stroke="#53729F" stroke-width="1.65" stroke-linecap="round" stroke-linejoin="round" cx="25.415" cy="38.339" rx="5.245" ry="5.156"/>
    </g>
    <g transform="translate(64 14)" fill-rule="nonzero">
      <path d="M6.775 30.027s-9.65 6.264-5.555 19.792a.668.668 0 001.035.343c2.195-1.68 5.92-4.191 5.92-4.191l-1.4-15.944zm22.155 0s9.655 6.264 5.57 19.792a.663.663 0 01-1.03.343c-2.2-1.68-5.92-4.191-5.92-4.191l1.38-15.944z" fill="#2B50ED"/>
      <path d="M17.855.447c18.1 26.235 8.895 47.89 8.895 47.89H8.955s-9.2-21.655 8.9-47.89z" fill="#FFFEFE"/>
      <path d="M17.19 1.432c-1.93 6.96-10.94 25.056.665 46.905h-8.9S0 27.22 17.19 1.432z" fill="url(#e)"/>
      <rect fill="#53729F" x="11.87" y="49.824" width="11.965" height="3.286" rx="1.643"/>
      <rect fill="#99ADD0" x="7.445" y="48.337" width="20.825" height="2.973" rx="1.486"/>
      <path d="M18.835 31.01v18.75a.978.978 0 01-1.955 0V31.01a.978.978 0 011.955 0z" fill="#2B50ED"/>
      <path d="M22.34 53.115h-9s-2.335 1.55-2.335 6.96c0 5.409 6.825 10.907 6.825 10.907s6.825-5.469 6.825-10.907c0-5.439-2.315-6.96-2.315-6.96z" fill="#EA643A"/>
      <path d="M20.5 53.115h-5.275s-1.37.91-1.37 4.081c0 3.172 4 6.389 4 6.389s4-3.217 4-6.389c0-3.171-1.355-4.081-1.355-4.081z" fill="url(#f)"/>
      <ellipse fill="#EA643A" cx="17.855" cy="77.619" rx="2.99" ry="2.973"/>
      <ellipse fill="#EA643A" cx="17.855" cy="85.285" rx="1.725" ry="1.715"/>
      <ellipse fill="#2B50ED" cx="17.855" cy="20.512" rx="4.795" ry="4.768"/>
    </g>
  </g>
</svg>
