<svg xmlns="http://www.w3.org/2000/svg" width="24" height="24" viewBox="0 0 24 24">
  <g id="Page-1" fill="none" fill-rule="evenodd">
    <g id="google" fill-rule="nonzero">
      <path id="Path" fill="#4285F4" d="M23.3611034,12.3542069 C23.3621083,11.5420998 23.2934428,10.7314034 23.1558621,9.93103448 L11.9172414,9.93103448 L11.9172414,14.5208276 L18.3542069,14.5208276 C18.0880404,16.0021276 17.2282314,17.3103767 15.974069,18.1423448 L15.974069,21.1216552 L19.8157241,21.1216552 C22.0651034,19.0477241 23.3611034,15.9806897 23.3611034,12.3542069 Z"/>
      <path id="Path" fill="#34A853" d="M11.9172414,24 C15.1332414,24 17.8411034,22.944 19.8157241,21.1233103 L15.974069,18.144 C14.9048276,18.8689655 13.5277241,19.2827586 11.9172414,19.2827586 C8.80882759,19.2827586 6.17048276,17.1873103 5.22703448,14.3635862 L1.26951724,14.3635862 L1.26951724,17.433931 C3.29239264,21.4592392 7.41222965,23.9997947 11.9172414,24 Z"/>
      <path id="Path" fill="#FBBC04" d="M5.22703448,14.3635862 C4.72826722,12.8839356 4.72826722,11.2815817 5.22703448,9.80193103 L5.22703448,6.73158621 L1.26951724,6.73158621 C-0.422448235,10.0984186 -0.422448235,14.0670986 1.26951724,17.433931 L5.22703448,14.3635862 Z"/>
      <path id="Path" fill="#EA4335" d="M11.9172414,4.88275862 C13.6167518,4.85499312 15.2589299,5.49711927 16.4888276,6.67034483 L16.4888276,6.67034483 L19.8902069,3.26896552 C17.7333783,1.24315997 14.8760593,0.130958796 11.9172414,0.165517241 C7.41222965,0.165722562 3.29239264,2.70627804 1.26951724,6.73158621 L5.22703448,9.80193103 C6.17048276,6.9782069 8.80882759,4.88275862 11.9172414,4.88275862 Z"/>
    </g>
  </g>
</svg>
